SplineFontDB: 3.0
FontName: AyannaNarrowTamil-ExtraBold
FullName: AyannaNarrow
FamilyName: AyannaNarrow
Weight: ExtraBold
Copyright: Licensed under the SIL Open Font License 1.1 (see file OFL.txt)
Version: pre
ItalicAngle: 0
UnderlinePosition: -102
UnderlineWidth: 0
Ascent: 819
Descent: 205
InvalidEm: 0
sfntRevision: 0x00028000
LayerCount: 2
Layer: 0 0 "Back" 1
Layer: 1 0 "Fore" 0
XUID: [1021 59 -1845969167 10851406]
FSType: 0
OS2Version: 3
OS2_WeightWidthSlopeOnly: 0
OS2_UseTypoMetrics: 1
CreationTime: 1435046519
ModificationTime: 1438602851
PfmFamily: 17
TTFWeight: 400
TTFWidth: 5
LineGap: 0
VLineGap: 0
Panose: 2 0 6 0 0 0 0 0 0 0
OS2TypoAscent: 819
OS2TypoAOffset: 0
OS2TypoDescent: -205
OS2TypoDOffset: 0
OS2TypoLinegap: 0
OS2WinAscent: 535
OS2WinAOffset: 0
OS2WinDescent: 221
OS2WinDOffset: 0
HheadAscent: 541
HheadAOffset: 0
HheadDescent: -238
HheadDOffset: 0
OS2SubXSize: 861
OS2SubYSize: 799
OS2SubXOff: 0
OS2SubYOff: 246
OS2SupXSize: 861
OS2SupYSize: 799
OS2SupXOff: 0
OS2SupYOff: 615
OS2StrikeYSize: 61
OS2StrikeYPos: 307
OS2CapHeight: 0
OS2XHeight: 0
OS2Vendor: 'ACE '
OS2CodePages: 00000001.00000000
OS2UnicodeRanges: 80108003.00002042.00000000.00000000
Lookup: 260 0 0 "Mark to base attachment in Tamil lookup 0" { "Mark to base attachment in Tamil lookup 0-1"  } ['abvm' ('DFLT' <'dflt' > 'taml' <'dflt' > ) ]
MarkAttachClasses: 1
DEI: 91125
LangName: 1033 "" "" "Medium" "" "" "Version 2.5.0" "" "" "" "" "" "" "" "" "" "" "ayanna-tamil" "tamil"
Encoding: tamil
UnicodeInterp: none
NameList: Lohit-Tamil
DisplaySize: -128
AntiAlias: 1
FitToEm: 1
WinInfo: 0 8 7
BeginPrivate: 5
BlueShift 1 0
StdHW 4 [35]
StdVW 4 [36]
StemSnapH 13 [35 36 37 66]
StemSnapV 21 [8 10 35 36 37 38 66]
EndPrivate
Grid
-1024 751.273132324 m 0
 2048 751.273132324 l 1024
679 1331 m 0
 679 -717 l 1024
121 1331 m 0
 121 -717 l 1024
-1024 555 m 0
 2048 555 l 1024
1399 888 m 1
 -158 -570 l 1025
  Named: "1"
1259 887 m 1
 -298 -571 l 1025
  Named: "1"
-1024 545 m 1
 2048 545 l 1025

StartChar: tml_E
Encoding: 9 2958 0
Width: 660
Flags: HMW
AnchorPoint: "tml_virama" 428 1 basechar 0
LayerCount: 2
Back
Fore
SplineSet
297 450 m 260
 200.04 450 153 360.877358491 153 249 c 260
 153 155 169.955844155 72 217 72 c 260
 261.631578947 72 270 134.523809524 270 173 c 260
 270 231.943181818 243.5 264 217 264 c 260
 178.745145929 264 151.457906182 215.405004241 162 143 c 261
 78 211 l 261
 99.9335730912 260.442477876 129.108706821 362 222 362 c 260
 290.476322116 362 369 306.712041885 369 170 c 260
 369 51.6271186441 312.487179487 -24 217 -24 c 260
 115.063379356 -24 54 87 54 239 c 260
 54 430.734177215 143.999788781 544.107491405 297 545 c 260
 297 450 l 260
291 545 m 5
 635 545 l 5
 635 450 l 5
 535 450 l 5
 535 0 l 5
 430 0 l 5x3e
 430 450 l 5
 289 450 l 5
 291 545 l 5
EndSplineSet
EndChar

StartChar: tml_Ee
Encoding: 10 2959 1
Width: 646
Flags: HMW
HStem: -18 36 0 21G<409 514 409 409 514 514> 232 36 485 35
VStem: -41 37 208 37 457 36
AnchorPoint: "tml_virama" 314 1 basechar 0
LayerCount: 2
Back
Fore
SplineSet
283 450 m 256
 186.040039062 450 139 360.876953125 139 249 c 256
 139 155 155.956054688 72 203 72 c 256
 247.631835938 72 256 134.5234375 256 173 c 256
 256 231.943359375 229.5 264 203 264 c 256
 164.745117188 264 137.458007812 215.405273438 148 143 c 257
 64 211 l 257
 85.93359375 260.442382812 115.108398438 362 208 362 c 256
 276.4765625 362 355 306.711914062 355 170 c 256
 355 51.626953125 298.487304688 -24 203 -24 c 256
 101.063476562 -24 40 87 40 239 c 256
 40 430.734375 130 544.107421875 283 545 c 256
 283 450 l 256
277 545 m 1
 621 545 l 1
 621 450 l 1
 521 450 l 1
 521 0 l 1
 416 0 l 1x3e
 416 450 l 1
 275 450 l 1
 277 545 l 1
194 -161 m 1
 416 48 l 1
 521 0 l 1x7e
 266 -236 l 1
 194 -161 l 1
EndSplineSet
EndChar

StartChar: tml_Ii
Encoding: 6 2952 2
Width: 602
Flags: HMW
HStem: 0 21G<-12 93 -12 -12 274 274 274 379> 485 35
VStem: 108 36 413 36
LayerCount: 2
Back
Fore
SplineSet
60 0 m 1
 60 551 l 1
 547 551 l 1
 547 456 l 1
 417 456 l 1
 417 0 l 1
 312 0 l 1
 312 456 l 1
 165 456 l 1
 165 0 l 1
 60 0 l 1
182.400390625 278 m 0
 182.400390625 308.400390625 208.049804688 335 239.400390625 335 c 0
 269.799804688 335 295.450195312 308.400390625 295.450195312 278 c 0
 295.450195312 247.599609375 269.799804688 221 239.400390625 221 c 0
 208.049804688 221 182.400390625 247.599609375 182.400390625 278 c 0
433.549804688 278 m 0
 433.549804688 308.400390625 459.200195312 335 489.599609375 335 c 0
 520.950195312 335 546.599609375 308.400390625 546.599609375 278 c 0
 546.599609375 247.599609375 520.950195312 221 489.599609375 221 c 0
 459.200195312 221 433.549804688 247.599609375 433.549804688 278 c 0
EndSplineSet
EndChar

StartChar: tml_Lla
Encoding: 31 2995 3
Width: 878
Flags: HMW
HStem: -17 36 0 21G 233 36 485 35 499 36
VStem: 23 37 272 37 424 35 698 36
LayerCount: 2
Back
Fore
SplineSet
54 239 m 260
 54 440.759493671 136.963384037 559.972505041 278 561 c 260
 412.797782224 561.982043144 508.05327557 418.247604669 507.749023438 212 c 4
 424.342773438 242 l 4
 422.712539783 377.124526488 366.300095478 467 278 467 c 260
 193.833333333 467 153 370.339622642 153 249 c 260
 153 155 169.955844155 72 217 72 c 260
 261.631578947 72 270 134.523809524 270 173 c 260
 270 231.943181818 244 264 218 264 c 260
 179.049603128 264 151.266231749 215.405004241 162 143 c 261
 78 211 l 261
 100.085889571 260.442477876 129.463628396 362 223 362 c 260
 291.010496795 362 369 306.712041885 369 170 c 260
 369 51.6271186441 312.487179487 -24 217 -24 c 260
 115.063379356 -24 54 87 54 239 c 260
424 0 m 1
 424 545 l 1
 853 545 l 1
 853 450 l 1
 753 450 l 1
 753 0 l 1
 648 0 l 1
 648 450 l 1
 529 450 l 1
 529 0 l 1
 424 0 l 1
EndSplineSet
EndChar

StartChar: tml_Day
Encoding: 65 3059 4
Width: 622
Flags: HMW
AnchorPoint: "tml_virama" 413 1 basechar 0
LayerCount: 2
Back
SplineSet
259 562 m 260
 106.01953125 561.010742188 21 418.046875 21 240 c 260
 21 88 79 -23 195 -23 c 260
 283 -23 343 48 343 156 c 260
 343 245 298 329 196 329 c 260
 143 329 89 292 59 250 c 261
 92 169 l 261
 109 194 132 238 187 238 c 260
 222 238 250 202 250 156 c 260
 250 124 231 72 193 72 c 260
 128 72 112 155 112 249 c 260
 112 373.071289062 158.323242188 469 262 469 c 260
 340.255859375 469 407.501953125 391.172851562 407.580078125 283 c 4
 407.649414062 187.12890625 385 115 361 82 c 261
 362 0 l 261
 597 0 l 261
 596 95 l 261
 472 95 l 261
 472 95 505.91015625 165.095703125 506 278 c 4
 506.107421875 413.599609375 424.331054688 563.069335938 259 562 c 260
EndSplineSet
Fore
SplineSet
380 79 m 1
 396.05859375 118.091796875 410.1328125 167.229492188 410.342773438 256 c 0
 410.596679688 382.725585938 359.8359375 467 283 467 c 256
 186.040039062 467 139 370.33984375 139 249 c 256
 139 155 155.956054688 72 203 72 c 256
 247.631835938 72 256 134.5234375 256 173 c 256
 256 231.943359375 229.5 264 203 264 c 256
 164.745117188 264 137.458007812 215.405273438 148 143 c 257
 64 211 l 257
 85.93359375 260.442382812 115.108398438 362 208 362 c 256
 276.4765625 362 355 306.711914062 355 170 c 256
 355 51.626953125 298.487304688 -24 203 -24 c 256
 101.063476562 -24 40 87 40 239 c 256
 40 440.759765625 130 560.060546875 283 561 c 256
 417.2109375 561.852539062 511.719726562 437.063476562 511.749023438 258 c 0
 511.780273438 116.44140625 468 57 468 57 c 1
 380 79 l 1
380 79 m 257
 485 95 l 257
 597 95 l 257
 597 0 l 257
 381 0 l 257
 380 79 l 257
EndSplineSet
EndChar

StartChar: tml_Pa
Encoding: 25 2986 5
Width: 511
Flags: HMW
HStem: 0 35
VStem: 50 36 435 36
AnchorPoint: "tml_virama" 266 0 basechar 0
LayerCount: 2
Back
Fore
SplineSet
70 0 m 1
 70 543 l 1
 175 543 l 1
 175 100 l 1
 346 100 l 1
 346 543 l 1
 451 543 l 1
 451 0 l 1
 70 0 l 1
EndSplineSet
EndChar

StartChar: tml_Ra
Encoding: 28 2992 6
Width: 498
Flags: HMW
HStem: 0 21G<-3 102 -3 -3 283 283 283 388 388 388> 485 35
VStem: 7 36 313 36
AnchorPoint: "tml_virama" 220 0 basechar 0
LayerCount: 2
Back
Fore
SplineSet
58 0 m 1
 58 551 l 1
 487 551 l 1
 487 456 l 1
 387 456 l 1
 387 0 l 1
 282 0 l 1
 282 456 l 1
 163 456 l 1
 163 0 l 1
 58 0 l 1
69 -170 m 1
 284 32 l 1
 388 0 l 1
 133 -236 l 1
 69 -170 l 1
EndSplineSet
EndChar

StartChar: tml_Tta
Encoding: 20 2975 7
Width: 663
Flags: HMW
HStem: 0 35
VStem: 60 36
AnchorPoint: "tml_virama" 346 0 basechar 0
LayerCount: 2
Back
Fore
SplineSet
60 0 m 1
 60 544 l 1
 165 544 l 1
 165 103 l 1
 633 103 l 1
 633 0 l 1
 60 0 l 1
EndSplineSet
EndChar

StartChar: tml_Va
Encoding: 33 2997 8
Width: 768
Flags: HMW
AnchorPoint: "tml_virama" 427 1 basechar 0
LayerCount: 2
Back
SplineSet
84 216 m 5x7f
 124 132 l 5
 140 165 176 192 215 192 c 4
 251 192 279 169 279 130 c 4
 279 96 253 80 226 80 c 4
 166 80 147 148 147 242 c 4
 147 354 203 438 301 438 c 4
 402 438 457 351 457 251 c 4
 457 199 439 137 411 93 c 5
 411 0 l 5
 747 0 l 5
 747 521 l 5
 642 521 l 5
 642 103 l 5
 531 103 l 5
 551 143 561 202 561 249 c 4
 563 420 464 542 297 541 c 4
 141 540 46 410 46 240 c 4
 46 88 110 -23 226 -23 c 4
 323 -23 378 40 378 126 c 4
 378 235 305 289 221 289 c 4
 164 289 112 256 84 216 c 5x7f
EndSplineSet
Fore
SplineSet
394 79 m 5
 410.058470868 118.09202454 424.133150136 167.229944385 424.342773438 256 c 4
 424.596406616 382.725754661 373.835902374 467 297 467 c 260
 200.04 467 153 370.339622642 153 249 c 260
 153 155 169.955844155 72 217 72 c 260
 261.631578947 72 270 134.523809524 270 173 c 260
 270 231.943181818 243.5 264 217 264 c 260
 178.745145929 264 151.457906182 215.405004241 162 143 c 261
 78 211 l 261
 99.9335730912 260.442477876 129.108706821 362 222 362 c 260
 290.476322116 362 369 306.712041885 369 170 c 260
 369 51.6271186441 312.487179487 -24 217 -24 c 260
 115.063379356 -24 54 87 54 239 c 260
 54 440.759493671 143.999788781 560.060824289 297 561 c 260
 431.211064682 561.852604793 525.719489942 437.063338442 525.749023438 258 c 4
 525.779989633 116.441529791 482 57 482 57 c 5
 394 79 l 5
394 79 m 257
 499 95 l 257
 603 95 l 257
 603 545 l 257
 708 545 l 257
 708 0 l 257
 395 0 l 257
 394 79 l 257
EndSplineSet
EndChar

StartChar: tml_MatraAa
Encoding: 38 3006 9
Width: 486
Flags: HMW
HStem: 0 21G<-12 93 -12 -12 274 274 274 379> 485 35
VStem: 108 36 413 36
LayerCount: 2
Back
Fore
SplineSet
50 0 m 1
 50 545 l 5
 479 545 l 5
 479 450 l 5
 379 450 l 5
 379 0 l 1
 274 0 l 1
 274 450 l 5
 155 450 l 5
 155 0 l 1
 50 0 l 1
EndSplineSet
EndChar

StartChar: tml_Seven
Encoding: 59 3053 10
Width: 606
Flags: HMW
HStem: 0 21G<-26 79 -26 -26 260 260 260 365> 485 35
VStem: 94 36 399 36
LayerCount: 2
Back
Fore
SplineSet
332 450 m 256
 194.046875 450 139 361.43104179 139 249 c 256
 139 155 155.956054688 72 203 72 c 256
 247.631835938 72 256 134.5234375 256 173 c 256
 256 231.943359375 230 264 204 264 c 256
 165.049804688 264 137.266601562 215.405273438 148 143 c 257
 64 211 l 257
 86.0859375 260.442382812 115.463867188 362 209 362 c 256
 277.010742188 362 355 306.711914062 355 170 c 256
 355 51.626953125 298.487304688 -24 203 -24 c 256
 101.063476562 -24 40 87 40 239 c 256
 40 430.734535193 148.1484375 544.076178036 332 545 c 256
 332 450 l 256
328 545 m 1
 536 545 l 1
 536 450 l 1
 536 450 l 1
 536 0 l 1
 431 0 l 1x3e
 431 450 l 1
 318 450 l 1
 328 545 l 1
EndSplineSet
EndChar

StartChar: uni0031
Encoding: 256 49 11
Width: 279
Flags: HW
HStem: 0 21G<124 229>
VStem: 124 105<0 377>
LayerCount: 2
Back
Fore
SplineSet
19.5 555 m 5
 229 609 l 1
 229 609 l 1
 229 0 l 1
 124 0 l 1
 124 464 l 1
 19 435 l 1
 19.5 555 l 5
EndSplineSet
EndChar

StartChar: uni0032
Encoding: 257 50 12
Width: 459
VWidth: 0
Flags: HW
HStem: -17 36 0 35 233 36 499 36
VStem: 49 37 298 37 480 38
LayerCount: 2
Back
SplineSet
388 352 m 4
 376.922851562 213 236 108 101 35 c 5
 421 35 l 5
 421 0 l 5
 31 0 l 5
 31 33 l 5
 162 102 342 222 353 352 c 4
 364.008789062 482.104492188 304.9609375 561.46484375 215 562 c 4
 105.984375 562.6484375 69 477.0390625 55 437 c 5
 24 449 l 5
 46 526 119.888671875 597 214 597 c 4
 325 597 399.999023438 503.43359375 388 352 c 4
EndSplineSet
Fore
SplineSet
21 466 m 5
 42.8837890625 543 116.383789062 614 210 614 c 4
 343.974344338 614 440.525192472 514.617859253 419.791992188 336.005859375 c 0
 401.759765625 219.426757812 312 140 242 103 c 1
 439 103 l 1
 439 0 l 1
 31 0 l 1
 31 93 l 1
 200.763671875 186.9765625 305.438476562 264.999023438 313.956054688 359.1796875 c 0
 322.004913713 455.590620043 271.102144671 506.447163508 217 507 c 4
 145.459960938 507.6875 121.1875 451.9453125 112 426 c 5
 21 466 l 5
EndSplineSet
EndChar

StartChar: NameMe.13
Encoding: 258 -1 13
Width: 533
VWidth: 0
Flags: HW
LayerCount: 2
Back
Fore
SplineSet
25 252.395507812 m 4
 25 395.890625 104.823242188 471.313476562 195.131835938 471.313476562 c 4
 228 471.313476562 251.494140625 461.571289062 274.865234375 445.2578125 c 5
 237 345 l 5
 211 360 169.704101562 369.712890625 147.466796875 320.267578125 c 4
 139.833984375 303.295898438 135 280.557617188 135 252.395507812 c 4
 135 168.212890625 190.606445312 115.115234375 244.145507812 115.115234375 c 4
 349.255859375 115.115234375 388.883789062 244.619140625 388.883789062 377.395507812 c 4
 388.883789062 510.4375 350.513671875 639.66796875 247.71484375 639.66796875 c 4
 180.079101562 639.66796875 147.517578125 588.380859375 137.842773438 550.754882812 c 4
 136.473632812 545.430664062 l 5
 30.373046875 583.720703125 l 5
 31.9365234375 588.359375 l 4
 57.4130859375 663.9140625 112.784179688 754.783203125 247.71484375 754.783203125 c 4
 482.872070312 754.783203125 503 488.815429688 503 377.395507812 c 4
 503 265.669921875 479.32421875 0 244.145507812 0 c 4
 92.2744140625 0 25 136.287109375 25 252.395507812 c 4
EndSplineSet
EndChar

StartChar: tml_A
Encoding: 3 2949 14
Width: 825
VWidth: 0
Flags: HW
HStem: -134 36<166.706 355.432> 160 35<141.354 678> 298 35<219.933 321.795> 492 37<228.107 385.381>
VStem: 155 37<359.354 458.575> 524 37<84.4743 308.835> 670 36<-129 160 195 521> 670 8<160 195>
LayerCount: 2
Back
Fore
SplineSet
660 -129 m 257
 660 545 l 257
 765 545 l 257
 765 -129 l 257xfe
 660 -129 l 257
30 50 m 256
 28.9431818182 160.119047619 93.4090909091 235 216 235 c 258
 678 235 l 257
 678 140 l 257xfd
 224 140 l 258
 166.780487805 140 132 108.928571429 132 53 c 256
 132 -22.4334414012 215.69047619 -49 280 -49 c 256
 392.542857143 -49 474.169760186 57.9983316936 475 186 c 0
 475.863157895 323.945454545 423.198804977 464.353716793 311 467 c 0
 279.022420246 467.645224122 258 442.446428571 258 412 c 0
 258 381.565217392 278.899732215 356.004053116 311 356 c 0
 337.671704751 355.99741811 364 371 364 413 c 0
 364 449.482312945 340.624752333 467 311 467 c 257
 412 488 l 257
 474.549450549 366.064039409 404.447644473 265.555123698 305 265 c 0
 220.764663058 264.447345117 156.783754514 324.998462367 156 415 c 0
 155.16257493 505.000327487 217.567019126 561.44831895 302 561 c 0
 496.785613799 559.965734943 570.912349434 356.341403438 572 176 c 0
 573.073529412 -2 447.132352941 -144 280 -144 c 256
 125.888888889 -144 31.0235178058 -56.6491927689 30 50 c 256
EndSplineSet
EndChar

StartChar: tml_Aa
Encoding: 4 2950 15
Width: 1075
VWidth: 0
Flags: HMW
HStem: -134 36<177.706 366.432> 160 35<152.354 689> 298 35<230.933 332.795> 492 37<239.107 396.381>
LayerCount: 2
Back
SplineSet
77 166 m 1053
683 -127 m 5,1,2
 680.8984375 37.6591796875 731.333984375 124 829 124 c 4,3,4
 947.338867188 124 985 5.814453125 985 -110 c 4,5,6
 985 -256.872070312 915.932617188 -348.61328125 799 -361 c 4,7,8
 694.227539062 -370.416015625 570.64453125 -344.111328125 544 -130 c 5,9,-1
 579 -124 l 5,10,11
 598.268554688 -276.299804688 667.166015625 -337.126953125 796 -327 c 4,12,13
 903.043945312 -317.610351562 951 -218.252929688 951 -114 c 4,14,15
 951 -4 919.745117188 90 830 90 c 4,16,17
 725.98828125 90 717.049804688 -29.5947265625 716 -130 c 5,18,-1
 683 -127 l 5,1,2
717 -129 m 261,0,-1
 681 -129 l 261,1,-1
 681 521 l 261,2,-1
 717 521 l 261,3,-1
 717 -129 l 261,0,-1
535 176 m 4,4,5
 536.92578125 318.453125 469.301757812 488.951171875 287 492 c 4,6,7
 238.9765625 492.803710938 191.956054688 458.580078125 193 408 c 4,8,9
 193.8203125 368.270507812 219.431640625 333.888671875 275 333 c 4,10,11
 347.6640625 331.837890625 364.444335938 425.243164062 359 491 c 261,12,-1
 391 485 l 261,13,14
 402.58203125 393.842773438 367.857421875 298.905273438 278 298 c 4,15,16
 201.041015625 297.224609375 156.897460938 345.390625 156 408 c 4,17,18
 155.014648438 476.75 219.030273438 528.688476562 287 529 c 4,19,20
 492.555664062 529.94140625 571.0390625 341.7265625 572 176 c 4,21,22
 573.03125 -1.7626953125 435.432617188 -134 286 -134 c 260,23,24
 123.06640625 -134 49.7099609375 -65.21875 41 27 c 260,25,26
 30.3828125 139.418945312 113.329101562 215 217 215 c 262,27,-1
 689 215 l 261,28,-1
 689 180 l 261,29,-1
 220 180 l 262,30,31
 131.084960938 180 65.4375 108.227539062 78 27 c 260,32,33
 93.2431640625 -71.560546875 202.799804688 -98 287 -98 c 260,34,35
 412.967773438 -98 532.799804688 13.2861328125 535 176 c 4,4,5
EndSplineSet
Fore
SplineSet
671 -129 m 257
 671 545 l 257
 776 545 l 257
 776 -129 l 257xfe
 671 -129 l 257
41 50 m 256
 39.943359375 155.357231841 104.409179688 227 227 227 c 258
 689 227 l 257
 689 132 l 257xfd
 235 132 l 258
 177.780273438 132 143 103.785840966 143 53 c 256
 143 -22.43359375 226.690429688 -49 291 -49 c 256
 403.54296875 -49 485.10546875 54.3565034907 486 178 c 0
 486.947265625 317.418492414 429.16015625 460.104817708 306 462 c 0
 266.782226562 462.586914062 241 439.678710938 241 412 c 0
 241 383.1953125 259.361660572 359.475585938 295 359 c 0
 348.522753906 358.086914062 363.726953125 414.674804688 358 474 c 257
 433 483 l 257
 457.846582031 366.532226562 408.149707031 271.538085938 300 270 c 0
 205.964599609 268.784179688 137.928548177 325.999023438 137 410 c 0
 136.047851562 500 207.000976562 556.485351562 303 556 c 0
 505 554.958007812 581.926757812 349.747368421 583 168 c 0
 584.073242188 -5.55 458.1328125 -144 291 -144 c 256
 136.888671875 -144 42.0234375 -56.6494140625 41 50 c 256
519 -144 m 1
 613 -128 l 1
 629.41796875 -237.866210938 676.95703125 -287.317382812 778 -288 c 0
 898.8203125 -288.803710938 936 -183.31640625 936 -82 c 0
 936 -2.7353515625 918.372070312 66 859 66 c 0
 801.166992188 66 776.75390625 33.2021484375 776 -24 c 1
 701 -58 l 1
 698.725585938 69.619140625 764.845703125 161 859 161 c 0
 987.006835938 161 1041 41.0869140625 1041 -82 c 0
 1041 -256.989257812 942.461914062 -383.383789062 778 -383 c 0
 680.115234375 -382.762695312 539.512695312 -344.154296875 519 -144 c 1
EndSplineSet
EndChar

StartChar: tml_Nnna
Encoding: 24 2985 16
Width: 930
Flags: HMW
LayerCount: 2
Back
SplineSet
332 556 m 5
 354 556 l 5
 354 461 l 5
 332 461 l 5
 332 556 l 5
332 461 m 260
 202.046875 461 139 367.583984375 139 249 c 260
 139 155 155.956054688 72 203 72 c 260
 247.631835938 72 256 134.5234375 256 173 c 260
 256 231.943359375 230 264 204 264 c 260
 165.049804688 264 137.266601562 215.405273438 148 143 c 261
 64 211 l 261
 86.0859375 260.442382812 115.463867188 362 209 362 c 260
 277.010742188 362 355 306.711914062 355 170 c 260
 355 51.626953125 298.487304688 -24 203 -24 c 260
 101.063476562 -24 40 87 40 239 c 260
 40 437.626953125 148.1484375 555.04296875 332 556 c 260
 332 461 l 260
351 556 m 260
 502.649414062 556 662 457.670898438 662 208 c 260
 662 50.59765625 619.403320312 -24 518 -24 c 260
 421.028320312 -24 373 53.3388671875 373 208 c 260
 373 413.654296875 452.397460938 544.872070312 637 546 c 261
 905 546 l 5
 905 451 l 5
 805 451 l 5
 805 0 l 5
 700 0 l 5
 700 451 l 5
 638 451 l 261
 522.397460938 451 478 358.591796875 478 208 c 260
 478 137.209960938 490.90234375 72 518 72 c 260
 545.306005859 72 556 129.956054688 556 207 c 260
 556 402.546875 441.958305027 461 351 461 c 260
 351 556 l 260
EndSplineSet
Fore
SplineSet
332 556 m 1
 354 556 l 1
 354 461 l 1
 332 461 l 1
 332 556 l 1
332 461 m 260
 194.046875 461 139 367.583984375 139 249 c 260
 139 155 155.956054688 72 203 72 c 260
 247.631835938 72 256 134.5234375 256 173 c 260
 256 231.943359375 230 264 204 264 c 260
 165.049804688 264 137.266601562 215.405273438 148 143 c 261
 64 211 l 261
 86.0859375 260.442382812 115.463867188 362 209 362 c 260
 277.010742188 362 355 306.711914062 355 170 c 260
 355 51.626953125 298.487304688 -24 203 -24 c 260
 101.063476562 -24 40 87 40 239 c 260
 40 437.626953125 148.1484375 555.04296875 332 556 c 260
 332 461 l 260
351 556 m 256
 502.649414062 556 662 457.670898438 662 208 c 256
 662 50.59765625 619.403320312 -24 518 -24 c 256
 421.028320312 -24 373 53.3388671875 373 208 c 256
 373 413.654296875 452.397460938 544.872070312 637 546 c 257
 905 546 l 1
 905 451 l 1
 805 451 l 1
 805 0 l 1
 700 0 l 1
 700 451 l 1
 638 451 l 257
 522.397460938 451 478 358.591796875 478 208 c 256
 478 137.209960938 490.90234375 72 518 72 c 256
 545.306005859 72 556 129.956054688 556 207 c 256
 556 402.546875 441.958305027 461 351 461 c 256
 351 556 l 256
EndSplineSet
EndChar

StartChar: tml_Nna
Encoding: 21 2979 17
Width: 1245
Flags: HW
HStem: -17 36<57.421 159.433> 1 21G<447 483> 233 36<32.148 153.159> 486 35<123.872 447 483 583>
VStem: -51 37<115.107 346.148> 198 37<58.919 187.892> 447 36<1 486>
AnchorPoint: "tml_virama" 466 0 basechar 0
LayerCount: 2
Back
Fore
SplineSet
351 556 m 256
 502.649414062 556 662 457.670898438 662 208 c 256
 662 50.59765625 619.403320312 -24 518 -24 c 256
 421.028320312 -24 373 53.3388671875 373 208 c 256
 373 419.738743528 461.720647638 554.838699612 668 556 c 257
 664 461 l 257
 529.61204834 461 478 364.788990162 478 208 c 256
 478 137.209960938 490.90234375 72 518 72 c 256
 545.306005859 72 556 129.956054688 556 207 c 256
 556 402.546875 441.958305027 461 351 461 c 256
 351 556 l 256
332 556 m 1
 354 556 l 1
 354 461 l 1
 332 461 l 1
 332 556 l 1
332 461 m 256
 202.046875 461 139 367.583984375 139 249 c 256
 139 155 155.956054688 72 203 72 c 256
 247.631835938 72 256 134.5234375 256 173 c 256
 256 231.943359375 230 264 204 264 c 256
 165.049804688 264 137.266601562 215.405273438 148 143 c 257
 64 211 l 257
 86.0859375 260.442382812 115.463867188 362 209 362 c 256
 277.010742188 362 355 306.711914062 355 170 c 256
 355 51.626953125 298.487304688 -24 203 -24 c 256
 101.063476562 -24 40 87 40 239 c 256
 40 437.626953125 148.1484375 555.04296875 332 556 c 256
 332 461 l 256
661 556 m 256
 812.649414062 556 972 457.670898438 972 208 c 256
 972 50.59765625 929.403320312 -24 828 -24 c 256
 731.028320312 -24 683 53.3388671875 683 208 c 256
 683 413.654296875 762.397460938 544.872070312 947 546 c 257
 1215 546 l 1
 1215 451 l 1
 1115 451 l 1
 1115 0 l 1
 1010 0 l 1
 1010 451 l 1
 948 451 l 257
 832.397460938 451 788 358.591796875 788 208 c 256
 788 137.209960938 800.90234375 72 828 72 c 256
 855.306005859 72 866 129.956054688 866 207 c 256
 866 402.546875 751.958305027 461 661 461 c 256
 661 556 l 256
EndSplineSet
EndChar

StartChar: tml_Ma
Encoding: 26 2990 19
Width: 624
VWidth: 0
Flags: HW
HStem: 0 35<105 554.505> 520 35<417.08 566.865>
VStem: 70 35<35 545> 327 35<7 463.14> 638 36<129.31 428.88>
AnchorPoint: "tml_virama" 286 0 basechar 0
LayerCount: 2
Back
Fore
SplineSet
389 0 m 257
 371 95 l 257
 460.798238587 93.8717948718 468 170.58974359 468 271 c 256
 468 355.308411215 448.28 465 400 465 c 256
 360.487804878 465 355 432.766990291 355 382 c 256
 355 66 l 257
 250 66 l 256
 250 382 l 256
 250 496.025125628 283.910344828 560.100502513 399 561 c 256
 519.393939394 561.935483871 572.121212121 403.838709677 573 271 c 256
 574.373134329 85.2948207171 513.955223881 0 389 0 c 257
60 0 m 257
 60 545 l 257
 165 545 l 257
 165 95 l 257
 378 95 l 257
 393 0 l 257
 60 0 l 257
EndSplineSet
EndChar

StartChar: tml_Virama
Encoding: 49 3021 20
Width: 0
VWidth: 0
Flags: HW
HStem: 658 48<-23.9284 23.9284>
VStem: -24 48<658.072 705.928>
AnchorPoint: "tml_virama" 0 0 mark 0
LayerCount: 2
Back
Fore
SplineSet
-60.8408203125 682 m 0
 -60.8408203125 714.955444336 -32.955444336 742.840820312 0 742.840820312 c 0
 32.955444336 742.840820312 60.8408203125 714.955444336 60.8408203125 682 c 0
 60.8408203125 649.044555664 32.955444336 621.159179688 0 621.159179688 c 0
 -32.955444336 621.159179688 -60.8408203125 649.044555664 -60.8408203125 682 c 0
EndSplineSet
EndChar

StartChar: tml_I
Encoding: 5 2951 21
Width: 0
Flags: W
LayerCount: 2
Back
SplineSet
327 332 m 1
 327 308 334.166666667 287.666666667 348.5 271 c 128
 362.833333333 254.333333333 380.333333333 246 401 246 c 256
 421.666666667 246 439.166666667 254.333333333 453.5 271 c 128
 467.833333333 287.666666667 475 308 475 332 c 256
 475 356 467.666666667 376.333333333 453 393 c 128
 438.333333333 409.666666667 421 418 401 418 c 0
 380.333333333 418 362.833333333 409.666666667 348.5 393 c 128
 334.166666667 376.333333333 327 356 327 332 c 1
 327 332 l 1
7 -172 m 1
 7 -132.666666667 20.3333333333 -95.3333333333 47 -60 c 128
 73.6666666667 -24.6666666667 109.666666667 3.66666666667 155 25 c 1
 127 74.3333333333 105.666666667 126 91 180 c 128
 76.3333333333 234 69 288.666666667 69 344 c 0
 69 469.333333333 112.166666667 576.5 198.5 665.5 c 128
 284.833333333 754.5 389 799 511 799 c 0
 619.666666667 799 712.5 758.166666667 789.5 676.5 c 128
 866.5 594.833333333 905 496.333333333 905 381 c 2
 905 0 l 1
 843 0 l 1
 843 381 l 2
 843 482.333333333 810.666666667 569.166666667 746 641.5 c 128
 681.333333333 713.833333333 603 750 511 750 c 0
 406.333333333 750 316.666666667 710.5 242 631.5 c 128
 167.333333333 552.5 130 456.666666667 130 344 c 0
 130 293.333333333 136.333333333 244 149 196 c 128
 161.666666667 148 180 103 204 61 c 1
 239.333333333 81.6666666667 279.666666667 97.1666666667 325 107.5 c 128
 370.333333333 117.833333333 420.333333333 123 475 123 c 0
 497 123 519.5 121 542.5 117 c 128
 565.5 113 588 106.666666667 610 98 c 1
 616 120.666666667 620.5 145.5 623.5 172.5 c 128
 626.5 199.5 628 228 628 258 c 0
 628 312 613 358.333333333 583 397 c 128
 553 435.666666667 517 455 475 455 c 2
 438 455 l 1
 464 445.666666667 484.833333333 429.833333333 500.5 407.5 c 128
 516.166666667 385.166666667 524 360 524 332 c 0
 524 294 511.833333333 262 487.5 236 c 128
 463.166666667 210 434.333333333 197 401 197 c 256
 367.666666667 197 338.833333333 210 314.5 236 c 128
 290.166666667 262 278 294 278 332 c 0
 278 379.333333333 297.166666667 419.833333333 335.5 453.5 c 128
 373.833333333 487.166666667 420.333333333 504 475 504 c 0
 532.333333333 504 581.333333333 480 622 432 c 128
 662.666666667 384 683 326 683 258 c 0
 683 223.333333333 681 191.5 677 162.5 c 128
 673 133.5 667 108 659 86 c 1
 710.333333333 67.3333333333 751.833333333 35.5 783.5 -9.5 c 128
 815.166666667 -54.5 831 -104.666666667 831 -160 c 0
 831 -200.666666667 814.166666667 -235.333333333 780.5 -264 c 128
 746.833333333 -292.666666667 706.333333333 -307 659 -307 c 0
 613 -307 568.666666667 -299.666666667 526 -285 c 128
 483.333333333 -270.333333333 445.666666667 -249 413 -221 c 1
 380.333333333 -249 340.666666667 -270.333333333 294 -285 c 128
 247.333333333 -299.666666667 197 -307 143 -307 c 0
 105 -307 72.8333333333 -294 46.5 -268 c 128
 20.1666666667 -242 7 -210 7 -172 c 1
 7 -172 l 1
69 -172 m 1
 69 -196 76.1666666667 -216.333333333 90.5 -233 c 128
 104.833333333 -249.666666667 122.333333333 -258 143 -258 c 0
 181.666666667 -258 219.333333333 -252.333333333 256 -241 c 128
 292.666666667 -229.666666667 326.666666667 -213 358 -191 c 1
 316 -161.666666667 280 -132 250 -102 c 128
 220 -72 196.333333333 -42 179 -12 c 1
 145.666666667 -29.3333333333 119 -52.3333333333 99 -81 c 128
 79 -109.666666667 69 -140 69 -172 c 1
 69 -172 l 1
241 12 m 1
 259.666666667 -20.6666666667 283.5 -51.1666666667 312.5 -79.5 c 128
 341.5 -107.833333333 375 -132.666666667 413 -154 c 1
 455.666666667 -124 491.666666667 -91.6666666667 521 -57 c 128
 550.333333333 -22.3333333333 571.666666667 13 585 49 c 1
 563 57 542.5 63.1666666667 523.5 67.5 c 128
 504.5 71.8333333333 488.333333333 74 475 74 c 0
 433 74 392.333333333 68.8333333333 353 58.5 c 128
 313.666666667 48.1666666667 276.333333333 32.6666666667 241 12 c 1
 241 12 l 1
462 -191 m 1
 500.666666667 -213 536.666666667 -229.666666667 570 -241 c 128
 603.333333333 -252.333333333 633 -258 659 -258 c 0
 689 -258 715 -248.333333333 737 -229 c 128
 759 -209.666666667 770 -186.666666667 770 -160 c 0
 770 -116 757.666666667 -75.8333333333 733 -39.5 c 128
 708.333333333 -3.16666666667 675.333333333 22.3333333333 634 37 c 1
 616.666666667 -9.66666666667 593.5 -52.5 564.5 -91.5 c 128
 535.5 -130.5 501.333333333 -163.666666667 462 -191 c 1
 462 -191 l 1
EndSplineSet
Fore
EndChar

StartChar: tml_Ya
Encoding: 27 2991 30
Width: 681
GlyphClass: 2
Flags: HW
HStem: -17 36 0 21G 233 36 485 35 499 36
VStem: -215 37 34 37 186 35 460 36
AnchorPoint: "tml_virama" 348 0 basechar 0
LayerCount: 2
Back
Fore
SplineSet
206 -17 m 1052
41 167 m 262,10,11
 41 545 l 260,9,-1
 146 545 l 261,8,-1
 146 161 l 262,7,-1
 146 96.4271697998 168.559344952 80 205 80 c 261,7,8
 287.642999177 80 306.14186857 134.143388464 306 222 c 0,5,6
 380.749023438 258 l 1,4,-1
 381.033198888 74.6165924072 300.878043653 -16.6936798096 206 -17 c 4,0,0
 73.7544236375 -17.5707382235 41 56.6223802395 41 167 c 262,10,11
306 545 m 1,27,-1
 411 545 l 1,36,-1
 411 95 l 1,35,-1
 530 95 l 1,34,-1
 530 545 l 1,33,-1
 635 545 l 1,32,-1
 635 0 l 1,29,-1
 306 0 l 1,28,-1
 306 545 l 1,27,-1
EndSplineSet
EndChar

StartChar: tml_Nya
Encoding: 19 2974 32
Width: 1156
Flags: HW
HStem: 0 21G<32 137 32 32 318 318 318 423> 485 35
VStem: 152 36 457 36
LayerCount: 2
Back
SplineSet
62.3232421875 242 m 4x9fe0
 61.931640625 333.450195312 86.8388671875 428.994140625 144.5 531.002929688 c 5
 174.5 517 l 5
 118.546875 421.079101562 95.7041015625 332.50390625 95.75 244 c 4
 95.9228515625 -82.755859375 310.9921875 -200.700195312 576.5 -198 c 4
 834.793945312 -195.408203125 950.5 -26.455078125 950.5 138 c 4
 950.5 225.352539062 924.411132812 300 849.5 300 c 4
 758.047851562 300 739.522460938 193.452148438 738.5 104 c 5
 705.5 107 l 5
 703.44140625 255.915039062 762.703125 334 848.5 334 c 4
 951.666992188 334 984.5 237.02734375 984.5 142 c 4
 984.5 -76.259765625 835.19921875 -222.078125 582.5 -231 c 4
 416.895507812 -236.846679688 64.1865234375 -193.282226562 62.3232421875 242 c 4x9fe0
228.5 242 m 260
 228.5 416.767578125 328.861328125 543.965820312 493.5 545 c 260
 494.5 510 l 260
 350.65625 510 265.5 397.376953125 265.5 242 c 260
 265.5 113 308.5 19 390.5 19 c 260
 440.5 19 477.5 64 477.5 126 c 260
 477.5 188 433.5 233 376.5 233 c 260
 319.5 233 283.5 199 254.5 165 c 261
 237.5 187 l 261
 268.5 238 322.5 269 378.5 269 c 260
 454.5 269 514.5 209 514.5 126 c 260
 514.5 43 462.5 -17 391.5 -17 c 260xdfe0
 286.5 -17 228.5 92 228.5 242 c 260
489.5 545 m 5
 839.5 545 l 5
 839.5 510 l 5
 739.5 510 l 5
 739.5 1 l 5
 703.5 1 l 5xbfe0
 703.5 510 l 5
 494.5 510 l 5
 489.5 545 l 5
EndSplineSet
Fore
SplineSet
578 450 m 256
 440.046875 450 385 361.43104179 385 249 c 256
 385 155 401.956054688 72 449 72 c 256
 493.631835938 72 502 134.5234375 502 173 c 256
 502 231.943359375 476 264 450 264 c 256
 411.049804688 264 383.266601562 215.405273438 394 143 c 257
 310 211 l 257
 332.0859375 260.442382812 361.463867188 362 455 362 c 256
 523.010742188 362 601 306.711914062 601 170 c 256
 601 51.626953125 544.487304688 -24 449 -24 c 256
 347.063476562 -24 286 87 286 239 c 256
 286 430.734535193 394.1484375 544.076178036 578 545 c 256
 578 450 l 256
562 545 m 1
 870 545 l 1
 870 450 l 1
 770 450 l 1
 770 0 l 1
 665 0 l 1x3e
 665 450 l 1
 560 450 l 1
 562 545 l 1
770 92.71875 m 1
 670.580078125 91.28125 l 1
 660.970284721 175.297317212 679.177861204 248.584150836 708.5 292.061523438 c 0
 742.7690858 342.873976869 782.829400746 368.086328208 835 366.969726562 c 0
 949.625623821 364.516406839 1006.05343167 243.569283894 1006.43554688 116 c 0
 1007.15911465 -125.563334819 849.331296584 -270.577757184 606 -269.951171875 c 0
 302.714611451 -269.170203 95.2904892987 -91.7926624377 94.494140625 223 c 0
 94.1487631245 359.526004901 143.575521358 465.427676966 199.543945312 557.782226562 c 1
 289 514 l 1
 235.589115025 421.75505152 200.530134268 348.361691522 200.439453125 217 c 0
 200.263319943 -38.1484463225 370.302116927 -174.10241448 607 -173.374023438 c 0
 791.121183862 -172.807426815 904.162159261 -67.65024392 903.87109375 111 c 0
 903.744340374 188.798710983 882.927899261 265.918496257 829 265.752929688 c 0
 782.354997626 265.61645788 769.099321503 224.654613149 770 148 c 0
 770.194335938 130.6442676 770.004882812 111.367912103 770 92.71875 c 1
EndSplineSet
EndChar

StartChar: tml_Ssa
Encoding: 35 2999 43
Width: 1023
GlyphClass: 2
Flags: HW
AnchorPoint: "tml_virama" 455 0 basechar 0
LayerCount: 2
Back
SplineSet
719 434 m 17
 719.713867188 500.983398438 689.428710938 521.546875 649 522 c 0
 596.75 522.584960938 571.811523438 475.40234375 572 428 c 0
 572.370117188 335.005859375 644.27734375 266.28125 723 267 c 0
 817.172851562 267.860351562 869 349 869 455 c 0
 905 455 l 0
 905 366 854.112304688 232.014648438 723 232 c 0
 648.974609375 231.9921875 539 290.490234375 539 431 c 0
 539 487.481445312 568.768554688 555.745117188 648 556 c 0
 737.646484375 556.288085938 755.5859375 485.7734375 755 434 c 9
 719 434 l 17
719 -152 m 1
 719 438 l 257
 755 438 l 257
 755 -152 l 257
 719 -152 l 1
23 242 m 256xbf
 23 422.536132812 112 553.9296875 258 555 c 256
 405 556.078125 485.140625 428.688476562 483 251 c 256
 482.41015625 202.00390625 475 111 423 35 c 257
 869 35 l 257
 869 455 l 257
 905 455 l 257
 905 -1 l 257
 378 -1 l 257x7f
 378 33 l 257
 433 99 446 191 446 251 c 256
 446 406.61328125 382 519 259 519 c 256
 134 519 60 402.595703125 60 242 c 256
 60 113 103 19 185 19 c 256
 235 19 272 64 272 126 c 256
 272 188 228 233 171 233 c 256
 114 233 78 199 49 165 c 257
 32 187 l 257
 63 238 117 269 173 269 c 256
 249 269 309 209 309 126 c 256
 309 43 257 -17 186 -17 c 256
 81 -17 23 92 23 242 c 256xbf
EndSplineSet
Fore
SplineSet
379 79 m 1
 395.587890625 118.091796875 410.15970807 167.229491096 410.342773438 256 c 0
 410.596679688 379.122070312 359.8359375 461 283 461 c 256
 186.040039062 461 139 367 139 249 c 256
 139 155 155.956054688 72 203 72 c 256
 247.631835938 72 256 134.5234375 256 173 c 256
 256 231.943359375 230 264 204 264 c 256
 165.049804688 264 137.266601562 215.405273438 148 143 c 257
 64 211 l 257
 86.0859375 260.442382812 115.463867188 362 209 362 c 256
 277.010742188 362 355 306.711914062 355 170 c 256
 355 51.626953125 298.487304688 -24 203 -24 c 256
 101.063476562 -24 40 87 40 239 c 256
 40 437 129.997070749 555.187855765 283 555 c 256
 416.624023438 554.8359375 510.710276766 433.517578195 510.749023438 258 c 0
 510.780273438 116.44140625 466 57 466 57 c 1
 379 79 l 1
676 384 m 1
 675.088867188 435.1953125 670.652036397 460.793212738 648 460 c 0
 636.398585464 459.59375 624.558197403 437.748613294 625 396 c 0
 625.421541132 349.843160962 643.629080793 249.965078975 732 250 c 4
 846.541992188 250.04400712 856.833007812 326.285242781 858 428 c 0
 933 425 l 0
 933 290.093922335 903.256835937 150.01054146 728 150 c 4
 622.944691881 149.993628889 528.0614526 226.423355123 524 399 c 0
 521.420424953 499.805664062 581.470791169 554.816233093 646 555 c 0
 762.591796875 555.33203125 781.627929688 467.353515625 781 404 c 1
 676 384 l 1
676 -152 m 1
 676 388 l 257
 781 408 l 257
 781 -152 l 257
 676 -152 l 1
483 96 m 257
 858 96 l 257
 858 461 l 257
 963 461 l 257
 963 0 l 257
 379 0 l 257
 379 79 l 257
 483 96 l 257
EndSplineSet
EndChar

StartChar: dottedcircle
Encoding: 74 9676 113
Width: 761
Flags: W
HStem: -32 64<357.282 402.718> -15 64<261.313 306.233 455.767 501.717> 38 65<176.282 221.233 540.767 585.718> 126 64<125.282 170.748 591.767 636.718> 218 64<109.798 154.718 606.767 652.233> 311 64<125.282 170.748 591.767 636.718> 397 65<176.798 222.233 539.282 585.202> 452 64<261.313 306.233 455.767 501.717> 470 63<357.282 402.718>
VStem: 100 64<226.767 272.202> 116 63<135.282 180.202 320.282 365.718> 167 63<47.2825 93.202 406.282 452.202> 251 64<-5.71777 39.7173 461.282 506.718> 348 64<-23.233 22.7173 478.767 523.202> 447 64<-5.71777 39.7173 461.282 506.718> 532 63<47.2825 93.202 406.282 452.202> 583 63<135.282 180.202 320.282 365.718> 598 63<226.767 272.202>
LayerCount: 2
Back
Fore
SplineSet
412 501 m 4x1c8e
 412 491.666666667 409 484.166666667 403 478.5 c 4
 397 472.833333333 389.333333333 470 380 470 c 260
 370.666666667 470 363 472.833333333 357 478.5 c 4
 351 484.166666667 348 491.666666667 348 501 c 4
 348 509.666666667 351 517.166666667 357 523.5 c 4
 363 529.833333333 370.666666667 533 380 533 c 260
 389.333333333 533 397 529.833333333 403 523.5 c 4
 409 517.166666667 412 509.666666667 412 501 c 4x1c8e
251 484 m 260
 251 493.333333333 254.333333333 501 261 507 c 4
 267.666666667 513 275.333333333 516 284 516 c 4
 293.333333333 516 300.833333333 513 306.5 507 c 4
 312.166666667 501 315 493.333333333 315 484 c 260
 315 474.666666667 312.166666667 467 306.5 461 c 4
 300.833333333 455 293.333333333 452 284 452 c 4x1d0e
 275.333333333 452 267.666666667 455 261 461 c 4
 254.333333333 467 251 474.666666667 251 484 c 260
511 484 m 260
 511 474.666666667 508 467 502 461 c 4
 496 455 488 452 478 452 c 4
 468.666666667 452 461.166666667 455 455.5 461 c 4
 449.833333333 467 447 474.666666667 447 484 c 260
 447 493.333333333 449.833333333 501 455.5 507 c 4
 461.166666667 513 468.666666667 516 478 516 c 4
 488 516 496 513 502 507 c 4
 508 501 511 493.333333333 511 484 c 260
167 429 m 260x1e1e
 167 438.333333333 170.166666667 446.166666667 176.5 452.5 c 4
 182.833333333 458.833333333 190.666666667 462 200 462 c 260
 209.333333333 462 216.833333333 459 222.5 453 c 4
 228.166666667 447 231 439 231 429 c 260
 231 419 228.166666667 411.166666667 222.5 405.5 c 4
 216.833333333 399.833333333 209.333333333 397 200 397 c 260
 190.666666667 397 182.833333333 400 176.5 406 c 4
 170.166666667 412 167 419.666666667 167 429 c 260x1e1e
595 429 m 260x1e0f
 595 419.666666667 591.833333333 412 585.5 406 c 4
 579.166666667 400 571 397 561 397 c 4
 552.333333333 397 545 399.833333333 539 405.5 c 4
 533 411.166666667 530 419 530 429 c 260
 530 439 533 447 539 453 c 4
 545 459 552.333333333 462 561 462 c 4
 571 462 579.166666667 458.833333333 585.5 452.5 c 4
 591.833333333 446.166666667 595 438.333333333 595 429 c 260x1e0f
116 343 m 260x1c2e
 116 352.333333333 119 360 125 366 c 4
 131 372 138.666666667 375 148 375 c 4
 158 375 165.666666667 372 171 366 c 4
 176.333333333 360 179 352.333333333 179 343 c 260
 179 333.666666667 176.333333333 326 171 320 c 4
 165.666666667 314 158 311 148 311 c 4
 138.666666667 311 131 314 125 320 c 4
 119 326 116 333.666666667 116 343 c 260x1c2e
646 343 m 260x1c0e80
 646 333.666666667 643 326 637 320 c 4
 631 314 623.333333333 311 614 311 c 260
 604.666666667 311 597.166666667 314 591.5 320 c 4
 585.833333333 326 583 333.666666667 583 343 c 260
 583 352.333333333 585.833333333 360 591.5 366 c 4
 597.166666667 372 604.666666667 375 614 375 c 260
 623.333333333 375 631 372 637 366 c 4
 643 360 646 352.333333333 646 343 c 260x1c0e80
100 249 m 260x1c4e
 100 258.333333333 103.166666667 266.166666667 109.5 272.5 c 4
 115.833333333 278.833333333 123.333333333 282 132 282 c 4
 141.333333333 282 149 278.833333333 155 272.5 c 4
 161 266.166666667 164 258.333333333 164 249 c 260
 164 239.666666667 161 232.166666667 155 226.5 c 4
 149 220.833333333 141.333333333 218 132 218 c 4
 123.333333333 218 115.833333333 220.833333333 109.5 226.5 c 4
 103.166666667 232.166666667 100 239.666666667 100 249 c 260x1c4e
661 249 m 260x1c0e40
 661 239.666666667 658.166666667 232.166666667 652.5 226.5 c 4
 646.833333333 220.833333333 639 218 629 218 c 4
 619.666666667 218 612.166666667 220.833333333 606.5 226.5 c 4
 600.833333333 232.166666667 598 239.666666667 598 249 c 260
 598 258.333333333 600.833333333 266.166666667 606.5 272.5 c 4
 612.166666667 278.833333333 619.666666667 282 629 282 c 4
 639 282 646.833333333 278.833333333 652.5 272.5 c 4
 658.166666667 266.166666667 661 258.333333333 661 249 c 260x1c0e40
116 157 m 4x1c2e
 116 166.333333333 119 174.166666667 125 180.5 c 4
 131 186.833333333 138.666666667 190 148 190 c 4
 158 190 165.666666667 186.833333333 171 180.5 c 4
 176.333333333 174.166666667 179 166.333333333 179 157 c 4
 179 148.333333333 176.333333333 141 171 135 c 4
 165.666666667 129 158 126 148 126 c 4
 138.666666667 126 131 129 125 135 c 4
 119 141 116 148.333333333 116 157 c 4x1c2e
646 157 m 4x1c0e80
 646 148.333333333 643 141 637 135 c 4
 631 129 623.333333333 126 614 126 c 260
 604.666666667 126 597.166666667 129 591.5 135 c 4
 585.833333333 141 583 148.333333333 583 157 c 4
 583 166.333333333 585.833333333 174.166666667 591.5 180.5 c 4
 597.166666667 186.833333333 604.666666667 190 614 190 c 260
 623.333333333 190 631 186.833333333 637 180.5 c 4
 643 174.166666667 646 166.333333333 646 157 c 4x1c0e80
167 70 m 260x3c1e
 167 79.3333333333 170 87.1666666667 176 93.5 c 4
 182 99.8333333333 189.666666667 103 199 103 c 260
 208.333333333 103 215.833333333 99.8333333333 221.5 93.5 c 4
 227.166666667 87.1666666667 230 79.3333333333 230 70 c 260
 230 60.6666666667 227.166666667 53 221.5 47 c 4
 215.833333333 41 208.333333333 38 199 38 c 260
 189.666666667 38 182 41 176 47 c 4
 170 53 167 60.6666666667 167 70 c 260x3c1e
595 70 m 260x3c0f
 595 60.6666666667 592 53 586 47 c 4
 580 41 572.333333333 38 563 38 c 260
 553.666666667 38 546.166666667 41 540.5 47 c 4
 534.833333333 53 532 60.6666666667 532 70 c 260
 532 79.3333333333 534.833333333 87.1666666667 540.5 93.5 c 4
 546.166666667 99.8333333333 553.666666667 103 563 103 c 260
 572.333333333 103 580 99.8333333333 586 93.5 c 4
 592 87.1666666667 595 79.3333333333 595 70 c 260x3c0f
251 16 m 4
 251 26 254.333333333 34 261 40 c 4
 267.666666667 46 275.333333333 49 284 49 c 4
 293.333333333 49 300.833333333 46 306.5 40 c 4
 312.166666667 34 315 26 315 16 c 4
 315 7.33333333333 312.166666667 0 306.5 -6 c 4
 300.833333333 -12 293.333333333 -15 284 -15 c 4x5c0e
 275.333333333 -15 267.666666667 -12 261 -6 c 4
 254.333333333 0 251 7.33333333333 251 16 c 4
511 16 m 4
 511 7.33333333333 508 0 502 -6 c 4
 496 -12 488 -15 478 -15 c 4
 468.666666667 -15 461.166666667 -12 455.5 -6 c 4
 449.833333333 0 447 7.33333333333 447 16 c 4
 447 26 449.833333333 34 455.5 40 c 4
 461.166666667 46 468.666666667 49 478 49 c 4
 488 49 496 46 502 40 c 4
 508 34 511 26 511 16 c 4
412 -1 m 4
 412 -10.3333333333 409 -17.8333333333 403 -23.5 c 4
 397 -29.1666666667 389.333333333 -32 380 -32 c 260
 370.666666667 -32 363 -29.1666666667 357 -23.5 c 4
 351 -17.8333333333 348 -10.3333333333 348 -1 c 4
 348 9 351 17 357 23 c 4
 363 29 370.666666667 32 380 32 c 260x9c0e
 389.333333333 32 397 29 403 23 c 4
 409 17 412 9 412 -1 c 4
EndSplineSet
EndChar

